<svg id="bf75b3a9-a73a-4379-98fb-0c8b00dcb0be" data-name="Layer 1" xmlns="http://www.w3.org/2000/svg" xmlns:xlink="http://www.w3.org/1999/xlink" width="1064" height="100.68" viewBox="0 0 1064 100.68"><defs><style>.\31 f4e13a7-2d06-42ff-910b-eb546165cadd,.\38 95443fb-3dfc-48d8-890b-2201f6bf496a{fill:none;stroke-linecap:round;}.\38 95443fb-3dfc-48d8-890b-2201f6bf496a{stroke-miterlimit:10;stroke-width:12px;stroke:url(#54f1ab0d-05bb-4e2c-9169-049730cc4b9d);}.\31 f4e13a7-2d06-42ff-910b-eb546165cadd{stroke:#000;stroke-linejoin:round;}</style><linearGradient id="54f1ab0d-05bb-4e2c-9169-049730cc4b9d" x1="7" y1="177.66" x2="1071" y2="177.66" gradientUnits="userSpaceOnUse"><stop offset="0.31" stop-color="#212529"/><stop offset="0.54" stop-color="#9e0c19"/><stop offset="0.66" stop-color="#db0011"/></linearGradient></defs><title>black-red-zigzag</title><path class="895443fb-3dfc-48d8-890b-2201f6bf496a" d="M13,222l127.11-87.73a6.28,6.28,0,0,1,6.59,0l124.77,85.48a6.32,6.32,0,0,0,6.6,0l124.78-85.48a6.32,6.32,0,0,1,6.6,0l124.78,85.48a6.32,6.32,0,0,0,6.6,0l124.78-85.48a6.32,6.32,0,0,1,6.6,0L797,219.74a6.32,6.32,0,0,0,6.6,0l124.78-85.48a6.38,6.38,0,0,1,6.62,0L1065,222" transform="translate(-7 -127.32)"/><path class="1f4e13a7-2d06-42ff-910b-eb546165cadd" d="M13,201" transform="translate(-7 -127.32)"/><path class="1f4e13a7-2d06-42ff-910b-eb546165cadd" d="M32,356" transform="translate(-7 -127.32)"/></svg>